/* XPM */
static char *_eb91fb0bba04f85c202004dde443917E9wbxNwsy6srtM2h[] = {
/* columns rows colors chars-per-pixel */
"50 50 123 2 ",
"   c None",
".  c #030304",
"X  c #110B06",
"o  c #1D0E05",
"O  c #141207",
"+  c #1A1409",
"@  c #251305",
"#  c #231A0B",
"$  c #301808",
"%  c #3F1F09",
"&  c #25200A",
"*  c #2B250B",
"=  c #35250F",
"-  c #3F2009",
";  c #37300C",
":  c #432209",
">  c #452B0D",
",  c #5B2D0B",
"<  c #4E3616",
"1  c #533917",
"2  c #563C18",
"3  c #64310C",
"4  c #6B340D",
"5  c #783B0E",
"6  c #514511",
"7  c #554911",
"8  c #594D13",
"9  c #61431B",
"0  c #6B4A1D",
"q  c #724E1E",
"w  c #655614",
"e  c #6E5E16",
"r  c #705F16",
"t  c #766416",
"y  c #86420F",
"u  c #8A440F",
"i  c #914710",
"p  c #924810",
"a  c #9B4C11",
"s  c #A75112",
"d  c #AA5313",
"f  c #BC5B14",
"g  c #927C1B",
"h  c #8D6125",
"j  c #956627",
"k  c #9A6928",
"l  c #A06D2A",
"z  c #A5712C",
"x  c #C35F15",
"c  c #C56015",
"v  c #C86716",
"b  c #C96618",
"n  c #CC6B1B",
"m  c #CE7419",
"M  c #D0711E",
"N  c #D17B1A",
"B  c #D37421",
"V  c #D67923",
"C  c #D87D25",
"Z  c #9B841D",
"A  c #A78E1F",
"S  c #AC9220",
"D  c #D7881D",
"F  c #D98B1E",
"G  c #DC8229",
"H  c #DE9520",
"J  c #CF8D36",
"K  c #D59137",
"L  c #D79338",
"P  c #DC9639",
"I  c #E0872C",
"U  c #E38B2E",
"Y  c #E19D21",
"T  c #E58F30",
"R  c #E69131",
"E  c #E99433",
"W  c #ED9A37",
"Q  c #E39B3B",
"!  c #ED9D39",
"~  c #F09F3A",
"^  c #D4B427",
"/  c #DCBB28",
"(  c #E5A523",
")  c #F0BD28",
"_  c #ECA23D",
"`  c #F3A53D",
"'  c #F7AA3F",
"]  c #F7B03C",
"[  c #F8B53A",
"{  c #F8BB38",
"}  c #E2C029",
"|  c #E9C62A",
" . c #F5C62A",
".. c #F2CC2C",
"X. c #F5D02C",
"o. c #FDD72E",
"O. c #FAC633",
"+. c #FDD730",
"@. c #FCD837",
"#. c #FCD838",
"$. c #F7A940",
"%. c #F7AD49",
"&. c #F7B152",
"*. c #F8BA68",
"=. c #FDDE57",
"-. c #F9CB8D",
";. c #FACE94",
":. c #FAD39E",
">. c #FDE682",
",. c #FDEA96",
"<. c #FAD6A4",
"1. c #FCE4C3",
"2. c #FCECD6",
"3. c #FCEDD8",
"4. c #FEF6D1",
"5. c #FEF4E7",
"6. c #FEF9E1",
"7. c #FEF7EF",
"8. c #FEFBED",
"9. c #FEFAF4",
"0. c #FEFDFB",
"q. c #FFFEFD",
"w. c white",
/* pixels */
"                                                                                                    ",
"                                                                                                    ",
"                                                                                                    ",
"                                                                                                    ",
"                                                                                                    ",
"                                      . . . . . . . . . . . .                                       ",
"                                      - - - - - - > 6 6 6 6 ;                                       ",
"                                . . X x c c c c c F o.o.o.o.Z . . .                                 ",
"                        . . . - y y u x c c c c c F o.o.o.o./ S S A O . .                           ",
"                        . . . , c c c c c c c c c F o.o.o.o.o.o.o.X.+ . .                           ",
"                    . . p f f x c c c ` ` ` ` ` ` ` ' ' ' ' { o.o.o.......w .                       ",
"                    @ : s c c n V V V ' $.$.$.$.$.$.$.$.$.$.[ O.O.O.o.o.o.Z 7                       ",
"                  . 4 c c c c G $.$.$.$.$.$.$.$.$.$.$.$.$.$.$.$.$.' o.o.o.o.o.O .                   ",
"                o 4 a c c b G E $.$.` G G G G G G G G G G G R $.$.' { O.o.o.o.g t .                 ",
"              . $ x c c c n $.$.$.` ` c c c c c c c c c c c V ` ' $.$.[ o.o.o.o.^ .                 ",
"              . $ x c c R ` $.$.$.B n c D  . . .` ~ ~ ~ ! b c n U $.$.' ' O.o.o.^ .                 ",
"              % 3 x n V ! $.$.! T n c D ( o.o.o.' $.$.$.` C n c V T ` $.$.{ O.o.} 8 *               ",
"          . . s c c G $.$.$.$.I c c v o.o.o.o.o.' $.$.$.$.$.U c c c ` $.$.$.' o.o.o.e .             ",
"          . . s c c G $.$.` G B c F Y o.=.,.,.,.:.:.:.:.:.%.W G n c G U $.$.' o.o.o.e .             ",
"          . . s c c G $.' W c c c ) o.+.>.w.w.w.w.w.w.w.9.&.$.$.C c c B ' ' ' o.o.o.r .             ",
"        . 4 d x n ~ ` $.B b c F  .o.#.6.8.w.w.w.w.w.w.w.w.5.<.$.` ! b c n T $.' [ o.| / # .         ",
"        . 5 c c M $.$.$.M c N ( o.o.@.4.4.4.4.4.2.2.2.2.3.0.1.*.&.` B n c U $.$.] o.o.o.& .         ",
"        . 5 c c M $.$.$.M m o.o.o.o.o.o.o.o.o.o.' $.$.$.%.7.w.w.-.$.$.E c U $.$.] o.o.o.& .         ",
"        . 5 c c M $.$.$.M m o.o.o.o.o.o.o.o.o.o.' $.$.$.%.;.1.w.-.$.$.E c U $.$.] o.o.o.& .         ",
"        . 5 c c M $.$.$.M m o.o.o.o.o.o.o.o.o.o.' $.$.$.$.$.-.w.-.$.$.E c U $.$.] o.o.o.& .         ",
"        . 5 c c M $.$.$.M m o.o.o.o.o.o.o.o.o.o.' $.$.$.$.$.%.&.%.$.$.E c U $.$.' ' ' ' # .         ",
"        . 5 c c M $.$.$.M m o.o.o.o.o.o.o.o.o.o.' $.$.$.$.$.$.$.$.$.$.E c U $.$.$.$.$.' # .         ",
"        . 5 c c M $.$.$.M m o.o.o.o.o.o.o.o.o.o.' $.$.$.$.$.$.$.$.$.$.E c U $.$.$.$.$.' # .         ",
"        . 5 c c M $.$.$.M m o.o.o.o.o.o.o.o.o.o.' $.$.$.$.$.$.$.$.$.$.E c U $.$.$.$.$.' # .         ",
"        . 5 c c M $.$.$.M m o.o.o.o.o.o.o.o.o.o.' $.$.$.$.$.$.$.$.$.$.E c U $.$.$.$.$.' # .         ",
"        . 5 c c M $.$.$.M c N ( o.o.o.o.o.o.o.o.' $.$.$.$.$.$.$.$.` B n c U $.$.$.$.$.' # .         ",
"        . 4 d x n ! ` $.B n c H o.o.o.o.o.o.o.o.' $.$.$.$.$.$.$.$.` b c n T $.$.$.$.Q K # .         ",
"          . . s c c G $.' W c H o.o.o.o.o.o.o.o.' $.$.$.$.$.$.$.$.` b B ' ' $.$.$.$.0 .             ",
"          . . s c c G $.$.W c N Y  .o.o.o.o.o.o.' $.$.$.$.$.$.$.R G c B $.$.$.$.$.$.0 .             ",
"          . . s c c G $.$.W c c c ) o.o.o.o.o.o.' $.$.$.$.$.$.$.C c c B $.$.$.$.$.$.0 .             ",
"              % 3 x n V ! ` T V c N D D ( o.o.o.' $.$.$.` C V V n c U E $.$.$.$.P 2 # .             ",
"              . $ x c c R ` $.U n n n c D  . . .` ~ ~ ~ W b c n n n ` $.$.$.$.$.J . . .             ",
"              . $ x c c c n $.' ` ` ` c c c c c c c c c c c V ` ` ` $.$.$.$.$.$.J .                 ",
"                o 4 a c c b G E $.$.` G G G G G G G G G G G R $.$.$.$.$.$.$.' h q .                 ",
"                  . 4 c c c c G $.$.$.$.$.$.$.$.$.$.$.$.$.$.$.$.$.$.$.$.$.$.' X .                   ",
"                    @ : s c c n V V V ' $.$.$.$.$.$.$.$.$.$.$.$.$.$.$.$.$.j 1                       ",
"                      . i f f f c c c ` ` ` ` ` ` ` $.$.$.$.$.$.$.' _ ! ! 9 .                       ",
"                        . . . , c c c c c c c c c C $.$.$.$.$.$.$._ + . .                           ",
"                        . . . % y y u x c c c c c C $.$.$.$.L z z l X . .                           ",
"                            . . . . X x c c c c c C $.$.$.$.k . . . . .                             ",
"                                      % % % % % % > < < < < =                                       ",
"                                      . . . . . . . . . . . .                                       ",
"                                                                                                    ",
"                                                                                                    ",
"                                                                                                    "
};
