/* XPM */
static char *_b775b80b6f64508806779dbb2316e6a6njkPDH7kQF9eBul[] = {
/* columns rows colors chars-per-pixel */
"50 50 209 2 ",
"   c None",
".  c #190A04",
"X  c #0D1717",
"o  c #131A1A",
"O  c #050807",
"+  c #2F1304",
"@  c #2D160A",
"#  c #2C180A",
"$  c #321405",
"%  c #351709",
"&  c #251A15",
"*  c #391E11",
"=  c #3F291C",
"-  c #183737",
";  c #172A2A",
":  c #2C3633",
">  c #302F2D",
",  c #451B06",
"<  c #551E03",
"1  c #46281A",
"2  c #582913",
"3  c #5B2309",
"4  c #692806",
"5  c #722702",
"6  c #742A04",
"7  c #7A2F0B",
"8  c #772D08",
"9  c #7B310B",
"0  c #79381B",
"q  c #493428",
"w  c #5A3E2B",
"e  c #794C33",
"r  c #1E3F40",
"t  c #313D40",
"y  c #1A4546",
"u  c #234748",
"i  c #384648",
"p  c #3E4E51",
"a  c #285555",
"s  c #375A5D",
"d  c #256C6C",
"f  c #286E6E",
"g  c #2C6566",
"h  c #356664",
"j  c #2E7979",
"k  c #387677",
"l  c #2D6F72",
"z  c #564C4A",
"x  c #47585F",
"c  c #7A5B46",
"v  c #695F5C",
"b  c #65594C",
"n  c #4A666A",
"m  c #55757A",
"M  c #57777B",
"N  c #4B6970",
"B  c #697A78",
"V  c #796D61",
"C  c #81340E",
"Z  c #853914",
"A  c #8B3B14",
"S  c #8A3D1B",
"D  c #843914",
"F  c #913E1A",
"G  c #883F21",
"H  c #8D421B",
"J  c #88401C",
"K  c #94431B",
"L  c #9A441C",
"P  c #9D491D",
"I  c #A14A1D",
"U  c #8A4526",
"Y  c #964926",
"T  c #9A4A26",
"R  c #9B4D29",
"E  c #944724",
"W  c #9D512B",
"Q  c #9E5431",
"!  c #9A5C3C",
"~  c #874F37",
"^  c #A24E29",
"/  c #A24C24",
"(  c #A4522C",
")  c #AB532B",
"_  c #A75027",
"`  c #B65B2C",
"'  c #BC5C2B",
"]  c #B25628",
"[  c #A25432",
"{  c #AA5B36",
"}  c #AB5D3A",
"|  c #A55A39",
" . c #B35B33",
".. c #B55C35",
"X. c #BE602E",
"o. c #AC603B",
"O. c #BE6130",
"+. c #B5643E",
"@. c #BA643E",
"#. c #BB673A",
"$. c #C05E2E",
"%. c #C05F31",
"&. c #C1602E",
"*. c #C16232",
"=. c #C7693A",
"-. c #DE773D",
";. c #D76F3E",
":. c #E1763E",
">. c #E0783E",
",. c #815944",
"<. c #AA6747",
"1. c #B56542",
"2. c #BA6645",
"3. c #B76946",
"4. c #BB6945",
"5. c #B66A4A",
"6. c #BB6A49",
"7. c #BA6748",
"8. c #AD6D50",
"9. c #B57255",
"0. c #BE7353",
"q. c #B87051",
"w. c #C46B45",
"e. c #CB6D45",
"r. c #C56D49",
"t. c #CC6E49",
"y. c #D16E45",
"u. c #D26E4B",
"i. c #CC7245",
"p. c #CC724B",
"a. c #C8744C",
"s. c #D37245",
"d. c #DC7442",
"f. c #D37449",
"g. c #DF7A48",
"h. c #C77A55",
"j. c #D27D56",
"k. c #E07640",
"l. c #E17B45",
"z. c #E27B4A",
"x. c #EB7D46",
"c. c #2E817E",
"v. c #32827F",
"b. c #BF8467",
"n. c #BB927C",
"m. c #D0825C",
"M. c #E0814F",
"N. c #CB8767",
"B. c #D38967",
"V. c #CA9276",
"C. c #CB916C",
"Z. c #5B7C83",
"A. c #537D83",
"S. c #2E8180",
"D. c #2F8788",
"F. c #358A88",
"G. c #359998",
"H. c #3A8F90",
"J. c #3DAAAB",
"K. c #4C858A",
"L. c #57858A",
"P. c #519498",
"I. c #658186",
"U. c #688D94",
"Y. c #6D959C",
"T. c #6D989F",
"R. c #63989F",
"E. c #71959D",
"W. c #479FA1",
"Q. c #6C97A2",
"!. c #6B9BA3",
"~. c #669DA4",
"^. c #759BA2",
"/. c #47A8A9",
"(. c #4BB7B9",
"). c #53B6B7",
"_. c #51ACAE",
"`. c #68A5AB",
"'. c #64ABB3",
"]. c #69A7B1",
"[. c #61B3BA",
"{. c #62BBBE",
"}. c #66B3B6",
"|. c #7AA2A6",
" X c #5EBCC2",
".X c #62BBC1",
"XX c #45C3C3",
"oX c #5CC2C6",
"OX c #5DC4CA",
"+X c #5DCACE",
"@X c #5DCCD2",
"#X c #5BD1D4",
"$X c #55DBDD",
"%X c #59DADC",
"&X c #54D5D6",
"*X c #4AD4D7",
"=X c #61C4CA",
"-X c #62C0C4",
";X c #64D5D7",
":X c #61CAD2",
">X c #57DEE1",
",X c #4EE6E5",
"<X c #54E4E4",
"1X c #52EAEC",
"2X c #53E6EA",
"3X c #4EEFF1",
"4X c #72EEEF",
"5X c #88888A",
"6X c #C49B85",
/* pixels */
"                                                                                                    ",
"                                          u s a y y y y                                             ",
"                                      d l #X;X@X@X@X#X*Xd l ;                                       ",
"                                X F.J.[.{.}.@XY.Y.Y.+X[.[.[./.H.X                                   ",
"                            o a XX,X[.|.^.T.&XU.U.U.&X!.Y.T.'.1XXXk :                               ",
"                          - ,X:XY.T.;X!.Z.Z.& . . . & M Z.R.#XY.Y.=X4Xs                             ",
"                        u ).+X}.Y.^.N h @ % 4 6 6 6 4 $ $ h h E.Y.'.+X(.a                           ",
"                      r _.~.!.oXK.i , < 6 6 ] W W R Y 6 6 < , i K.=X!.!._.y                         ",
"                    - (.T.Y.Y.m 1 4 5 Z @.S k.6.6.2.1.F d.A 6 4 1 N Y.Y.!.).r                       ",
"                    a >X XY.M * 9 Z +.1.r.F k.2.2.2.1.L x.e.1.C 7 1 m T.[.<Xg                       ",
"                  O $XY.{.L.* 6 ' g.4.6.t.K k.2.2.2.1.L l.t.w.f._ 6 * A.OXE.&XX                     ",
"                  j [.Y.^.> 4 H ' g.e.w.f.S d.2.w.w.+.L l.w.y.y._ P 7 > ^.Y.'.H.                    ",
"                : XX!.Q.n 1 9 [ ` s.e.r.p.S d.w.e.w.1.L l.2.e.y.^ X.A 2 x T.~.*Xo                   ",
"                j '.<XOXi 3 } [ ' i.i.w.t.S k.w.y.w.1.L g.2.e.y.R ' 4.4 : =X<X'.H.                  ",
"                D.].Q.N , Z 1.[ ' p.e.e.w.S k.w.s.r.+.L g.2.4.y.W *.w.S , n !.`.G.                  ",
"                F.].Y.N , { 4.[ ' i.4.e.2.S :.w.f.w.1.L l.2.4.u.( ' w.} , n Y.`.G.                  ",
"              h _.Q.L.> 4 { 2.[ ` e.w.t.2.S :.w.t.e.1.L l.2.2.u.) X.w.} 4 = I.T._.g                 ",
"              k 1X$X(.# ] w.4.[ ' e.4.6.6.S k.e.w.e.+.L g.7.4.y._ O.r.2.| 1 _.$X2Xj                 ",
"              d OX!.A.@ ' w.2.Q ' e.0.N.N.! :.e.2.e.1.L g.7.4.e._ ' w.2.<.* m Q. XS.                ",
"              d OXE.I., L R T S L ^ 8.8.<.! ` ^ R ^ Y Z ] Y Y T S L R | Y , B Y.{.S.                ",
"              d OXY.c %.' X.%.X.X.$.a.h.h.h.*.O.' *.*.*.&.&.*.$.$.X.#.=.O.*.c Y. XS.                ",
"              d 3X<XU x.w.w.n.r.w.w.0.6Xh.w.w.w.b.b.r.w.w.w.n.w.a.h.h.n.w.i.J %X1Xv.                ",
"              d OX!.~ =.} } } } } } } } } { } } } o.} } } { } } 1.1.} } } } e Y..Xc.                ",
"              d =XY.I.3 6 6 6 6 9 6 6 5 6 6 6 6 9 5 6 6 6 6 6 8 6 6 5 5 5 < B ^.{.S.                ",
"              f =XE.Z.@ P ( W E P  .^ R W C ` ) R ( ( Z ` W W W H I ( ( K + m Y.{.c.                ",
"              d 1X>X(.@ ' e.2.Q ' d.p.2.2.S k.e.2.2.w.L z.7.2.2.R ' w.e.[ + /.%X2Xc.                ",
"              d +X~.L.@ ' p.<.Q ' i.e.6.4.G :.e.w.4.w.L z.7.2.2.R $.d.y...$ M ~..Xc.                ",
"              d oXY.Z.@ &.<.v ~ ' i.e.r.6.S :.w.w.e.w.L z.2.4.2.R $.s.w. .+ m Y..Xc.                ",
"              d OXY.Z.@ ' b 5Xq ' i.w.e.2.U :.w.e.e.2.L z.2.e.2.R $.f.w. .+ m Y..Xc.                ",
"              d 1X>X(.# ' <.v ~ ' i.w.e.w.S >.4.e.s.2.L z.7.e.2.R $.f.w. .$ /.$X1Xv.                ",
"              d OX!.L.@ ' w.z ( ' i.2.w.w.S -.7.t.s.2.L z.7.e.2.W $.d.y. .+ m ~.-Xc.                ",
"              d OXT.Z.@ ' w.z [ ' i.2.w.w.S k.2.a.y.1.L z.7.e.4.R $.y.e.[ + m E..Xc.                ",
"              d oXY.Z.@ ' w.z [ ` i.4.w.p.H M.6.w.y.2.L z.2.e.2.R $.e.e.[ + m Y..Xc.                ",
"              d 2X%X(.@ ' w.z [ ' i.4.4.p.Q z.2.e.y.1.L z.r.y.w.R $.a.B.3.$ /.&X2Xc.                ",
"              d @X`.L.@ $.c 5Xw ` i.2.2.h.Y -.2.e.y.1.L z.e.y.e.R *.B.B.h.= K.`.OXc.                ",
"              d OXY.Z.@ ' c 5Xw ' i.2.h.h.F -.2.w.e.1.L z.e.y.y.R *.N.m.8.q m Y. Xc.                ",
"              d OXY.Z.@ ' w.,.[ ' i.h.0.r.K :.2.4.2.1.L z.e.w.y.R &.B.B.8.* m Y..Xc.                ",
"              d <X#X_.@ ' e.2.[ ` j.0.2.w.F k.2.7.6.1.L x.e.4.y.R ' w.2.[ + W.#X>Xc.                ",
"              d @X`.L.@ ' e.2.[ ' p.2.4.w.F -.6.6.2.1.L x.w.4.f.( ' w.3.[ $ A.`.OXc.                ",
"              d =XE.Z.% ] @.o.R ] @.} +.@.Z =.1.1.} { F ;.=.+.@.^ ] #.o.R , M T..Xc.                ",
"              f OXY.V I L L P P L P P L L L P P L P L L L L P L L P L L L P V Y..Xc.                ",
"              d <X#XU x.p.f.V.s.s.s.j.C.i.s.s.i.N.m.f.f.s.f.V.s.s.s.p.C.i.f.J OX<Xc.                ",
"              d #X'.U g.3.3.9.1.2.2.7.9.7.3.1.2.9.5.1.1.1.2.9.3.2.2.3.9.3.2.G `.+Xc.                ",
"              d oXY.B 4 8 6 6 6 6 6 6 7 9 8 6 6 6 6 6 7 6 6 6 6 6 6 6 7 7 4 B Y..Xc.                ",
"              d oXY.Z.@ A L K C Z K K K H 9 L A H H H 9 L H A H C A K J Z % m Y..XS.                ",
"              f $XOX/.@ ' s.u.( ' p.4.e.4.S l.w.t.p.+.L l.t.w.u.W *.w.2.[ + P.=X%Xc.                ",
"              d #X'.P.@ ' e.e.( ' i.4.e.4.S k.w.p.e.+.L z.4.e.t.W $.w.2.[ + K.}.+Xc.                ",
"              l OXY.Z.@ ' e.e. .' i.e.4.2.S :.w.e.e.@.L z.3.e.4.W &.w.2.[ + M T.{.c.                ",
"              k oXY.Z.@ ' e.w.{ ' s.e.6.4.S :.t.w.w.e.L l.2.4.2.R &.w.2.<.1 I.Y..Xc.                ",
"              a h p i . 0 T Y 0 0 _ Q <.<.e / T Y Y T 2 ) Y E E 0 D T Y ~ & t p h a                 "
};
