/* XPM */
static char *_94a416680fb441dc685b5aa2ab1b451Pim1wf7X2m0kcBO1[] = {
/* columns rows colors chars-per-pixel */
"50 50 220 2 ",
"   c None",
".  c #0D0E0E",
"X  c #0E0F10",
"o  c #0C1618",
"O  c #151E1D",
"+  c #16191B",
"@  c #1B130F",
"#  c #25160E",
"$  c #26180F",
"%  c #28170E",
"&  c #251A12",
"*  c #261710",
"=  c #16201F",
"-  c #162121",
";  c #1A2122",
":  c #1A2A2B",
">  c #1C3739",
",  c #252A2C",
"<  c #2B2D2D",
"1  c #232629",
"2  c #302F2B",
"3  c #3A2D27",
"4  c #32302D",
"5  c #3C3026",
"6  c #2A2E30",
"7  c #2D3134",
"8  c #2C3C3F",
"9  c #273436",
"0  c #313538",
"q  c #35393C",
"w  c #373837",
"e  c #451F0E",
"r  c #4D2210",
"t  c #742B04",
"y  c #772D07",
"u  c #7D310B",
"i  c #7B3814",
"p  c #6B2D10",
"a  c #432D23",
"s  c #4E3C2E",
"d  c #563929",
"f  c #584433",
"g  c #684229",
"h  c #764C35",
"j  c #2C3E41",
"k  c #3A3E41",
"l  c #303F44",
"z  c #1B4746",
"x  c #284848",
"c  c #3E4245",
"v  c #37464A",
"b  c #265858",
"n  c #324D52",
"m  c #23615F",
"M  c #235F61",
"N  c #246162",
"B  c #2A6464",
"V  c #336665",
"C  c #2C7A7A",
"Z  c #367275",
"A  c #2E716F",
"S  c #424445",
"D  c #4E5354",
"F  c #425754",
"G  c #54595B",
"H  c #4F554E",
"J  c #6F5748",
"K  c #71655B",
"L  c #587C77",
"P  c #446D71",
"I  c #716865",
"U  c #82330E",
"Y  c #833712",
"T  c #863A14",
"R  c #8B3C15",
"E  c #8D3D19",
"W  c #833B1D",
"Q  c #913C16",
"!  c #923C18",
"~  c #8E4319",
"^  c #914117",
"/  c #91421A",
"(  c #99441C",
")  c #A2481F",
"_  c #8B4322",
"`  c #934522",
"'  c #964924",
"]  c #9A4924",
"[  c #994C28",
"{  c #9C522B",
"}  c #985026",
"|  c #8B5336",
" . c #A34C24",
".. c #AB4F23",
"X. c #A44E28",
"o. c #A95329",
"O. c #B35627",
"+. c #B35628",
"@. c #B35929",
"#. c #B85B29",
"$. c #A25531",
"%. c #A95A35",
"&. c #B25833",
"*. c #BC602E",
"=. c #A1613E",
"-. c #B9643C",
";. c #C35F2A",
":. c #C4612B",
">. c #C56431",
",. c #CA6936",
"<. c #D66D38",
"1. c #D97139",
"2. c #8F5E45",
"3. c #986548",
"4. c #8A6149",
"5. c #A56546",
"6. c #BB6A43",
"7. c #BA6D4B",
"8. c #B56B48",
"9. c #B87544",
"0. c #B67457",
"q. c #A4795F",
"w. c #B37B62",
"e. c #C46C45",
"r. c #CA6E45",
"t. c #C96D48",
"y. c #C67145",
"u. c #CB7145",
"i. c #C9724A",
"p. c #C6704C",
"a. c #D37244",
"s. c #DC7446",
"d. c #D57449",
"f. c #DC7449",
"g. c #DD7B48",
"h. c #C87954",
"j. c #D26E47",
"k. c #E37B43",
"l. c #EA7C44",
"z. c #E97E4C",
"x. c #E2774B",
"c. c #F17E43",
"v. c #628176",
"b. c #BB866E",
"n. c #B38574",
"m. c #B18A76",
"M. c #C98959",
"N. c #C98F52",
"B. c #EC824D",
"V. c #E6804E",
"C. c #FD8546",
"Z. c #FD8549",
"A. c #F7854A",
"S. c #EB8956",
"D. c #F68B54",
"F. c #FA9152",
"G. c #D38A62",
"H. c #CE8968",
"J. c #E38E68",
"K. c #DCA47A",
"L. c #EEBB6F",
"P. c #F5B96C",
"I. c #F8B96D",
"U. c #F6BB71",
"Y. c #F7B875",
"T. c #F1A36F",
"R. c #5D7A81",
"E. c #2B8282",
"W. c #399B9A",
"Q. c #3AB4B3",
"!. c #569095",
"~. c #62858C",
"^. c #6A898D",
"/. c #65888E",
"(. c #668B92",
"). c #6C959C",
"_. c #6D989C",
"`. c #679196",
"'. c #70969E",
"]. c #7F8584",
"[. c #41A19F",
"{. c #6A9BA3",
"}. c #679EA4",
"|. c #7098A0",
" X c #46B8B9",
".X c #54BABB",
"XX c #49A8AB",
"oX c #67A5AA",
"OX c #64ADB4",
"+X c #69A8B2",
"@X c #62B3BB",
"#X c #41C1BF",
"$X c #55BFC1",
"%X c #63BAC1",
"&X c #4EC7C7",
"*X c #5DCBCE",
"=X c #59C4C6",
"-X c #4FCFD1",
";X c #5CCED2",
":X c #56CDD2",
">X c #4DD1D1",
",X c #4AD9DA",
"<X c #47D9DB",
"1X c #56DBDC",
"2X c #59DDDE",
"3X c #56D3D5",
"4X c #4FD0CF",
"5X c #60CACE",
"6X c #63CFD3",
"7X c #62D1D3",
"8X c #56E1DF",
"9X c #5ADEE1",
"0X c #54DEE1",
"qX c #54E3E3",
"wX c #52EDEE",
"eX c #58E6E5",
"rX c #51F1F1",
"tX c #50F2F1",
"yX c #61E5E6",
"uX c #888D8C",
/* pixels */
"                                                                                                    ",
"                                      : C E.E.E.A p @.9.i o._                                       ",
"                                o B  X#XqX+X+X+XJ k.Y.K.5.z.' p                                     ",
"                            : > >X.XoXoX@X*X(.h l.T.Y.H.5.S. .@.T                                   ",
"                          z .X9X:XoX).).~.[.g 1.Z.T.T.G.=.S. .;.e.p                                 ",
"                      x Q.3XoX).oX5XP v O + r 1.F.N.6.M._ B. .;.e.g V                               ",
"                    o [.@X*X+X).R.x > ; 6 3 { c.F.N.+.d.Q B. .;.y.i L b                             ",
"                  O .X}.).{.$X: ; , < 6 6 a >.Z.F.N.O.f.Q B. .>.y.t J =Xx                           ",
"                  W.@X{._.~.8 < 7 7 6 6 6 d <.Z.L.$.O.f.E B.X.:.f.u | ).>X:                         ",
"                z XX;X@X~.7 , < 6 7 6 6 3 ..C.Z.L.$.O.f.E V.' :.f./ >.v.*XZ                         ",
"                E.%X|.!.7 , 6 6 6 6 7 6 5 ..C.Z.L.$.@.f.^ z.' ;.s.E :.K _.>X.                       ",
"              z .X}.).L + 6 6 6 6 6 6 7 a ..C.A.L.$.O.g.E z.' :.s.E >.K ).oXW.                      ",
"              N =XoX`.O 7 7 6 6 6 6 7 4 R C.C.I.6.&.@.d.! B. .:.s.E g.` ^.oX X:                     ",
"            o 2X@X;XP ; 6 7 6 6 6 7 7 2 R C.C.I.6.&.@.y.E B. .:.s./ l.` oX*XOXC                     ",
"            o 2X)._.+ , 6 6 6 7 7 6 6 2 R C.C.I.7.&.O.u.R B.X.:.f.E l.] S (.OXC                     ",
"            o 9X_._.+ , 6 6 6 0 7 6 6 2 R C.C.U.7.$.O.u.R z.' >.s.E l.] * ~.OXC                     ",
"          - &XOX+Xn 1 < 6 6 6 6 6 6 6 2 R B.@./ / T ..-.R S.$.:.r.E k.` * !.+X*Xb                   ",
"          O ,X1X1Xb < k q 6 6 6 6 6 6 2 R *.>.z.k.,./ ( ' h._ :.e.E g.` * $X1XwXN                   ",
"          O >X).).j G G G S 6 6 6 6 6 2 E #.>.u.7.b.d.g.y.*.( Q ` E k.` # ~.).;XN                   ",
"          O >X).).v G D D D < 6 6 6 6 4 R k.+./ ` 0.7.m.h.u.r.,.,.U ( U % ~.).;XN                   ",
"          O >X{.{.j G D G c 6 6 6 6 7 4 R Z.l.~ y i _ 5.8.0.n.6.e.k.l...p ^.{.;XN                   ",
"          - ,X1X1Xb < k 7 6 6 6 6 7 6 2 R Z.C.Y.8.[ R u t Y %.$.m.7.7.h._ =X1XwXm                   ",
"          O 4X).).j , < 6 6 6 7 7 6 6 2 R C.Z.U.h.&.+.o.u ( t y [ [ 5.w.W ^.'.;XN                   ",
"          O >X'._.8 , < 6 6 6 7 7 6 6 2 R C.Z.U.i.o.O.u.E x.~ o.U t y R r /.).6XN                   ",
"          O -X}.}.x , 6 6 6 7 6 6 7 6 2 R Z.Z.I.a.$.O.y.E V.' :.-.E *.t # `.{.;XN                   ",
"          ; ,X2X0Xb < 6 6 7 6 6 6 6 6 2 R Z.Z.I.t.| @.t.Q V.' :.e.Q g./ & =X9XwXN                   ",
"          - >X).).8 , 7 7 6 6 6 6 6 6 4 E Z.C.P.4.G %.i.Q B. .:.e.E k.' $ ~.).*XN                   ",
"          - >X).).8 , 7 7 6 6 6 6 6 6 4 R C.C.P.D ].3.i.Q B. .:.e.Q l.' # ~.).*XN                   ",
"          - >X).).j < 6 6 7 6 6 6 6 7 2 R C.C.P.H uX3.i.E B. .:.r./ l.] # ~.).*XN                   ",
"          - <X8XqXb , 6 6 6 7 6 6 7 6 2 R C.C.I.5.f +.f.! B. .:.d./ l.] & &XqXtXN                   ",
"          = >X)._.8 , 6 6 6 6 7 7 6 6 2 R C.C.I.8.s O.s.! B. .:.f.^ l.] # ~.).5XN                   ",
"          = >X)._.8 , 6 6 6 0 7 7 6 6 2 R Z.Z.U.6.s #.s.Q V.' :.x.^ l.` # /.).*XN                   ",
"          = -X{.{.l , 6 q k S 7 6 6 6 2 R Z.Z.U.6.s O.s.! V.' :.r.E l.` * (.{.;XN                   ",
"          ; ,XqXqXb 6 6 c c 6 6 6 6 6 2 R Z.C.I.5.s 7.J.%.B. .:.e.Q l.] & &XqXrXN                   ",
"          O -X).).8 , q c 7 6 6 6 6 6 4 E C.C.I.4.I 0.J.=.S. .;.e.Q l.] $ ~.).*XN                   ",
"          O >X).).8 0 c 6 6 6 6 6 6 7 4 R C.C.P.D uXn.G.=.S. .:.r.Q l.] $ ~.).*XN                   ",
"          = >X).).v k 7 6 7 6 6 6 6 7 2 R C.C.P.D uXq.G.' B. .:.f./ l.] $ ~.).*XB                   ",
"          = ,XeXyXV , 6 6 6 7 6 6 7 6 2 R C.C.P.3.f @.u.E V.' :.f./ k.` & &XqXtXZ                   ",
"          = >X{.{.j , 6 6 6 6 7 7 6 6 2 R C.C.U.6.&.@.u.Q V.' :.r.E k.` * ~._.6XB                   ",
"          O >X).).8 , 6 6 6 6 7 7 6 6 2 R C.Z.I.u.&.O.f.! z.' :.t.Q <.Y e /.'.*XN                   ",
"          = >X).).l , 6 6 6 7 6 6 7 6 2 R Z.C.I.a.%.O.f.Q V.' :.' u o.,.T h ).*XN                   ",
"          ; ,X2X2Xb < 6 7 7 6 6 6 6 7 2 R Z.C.I.j.$.@.r.E a.U R ,.1.a.p.-.g 9XwXN                   ",
"          O >X).).8 , 7 7 6 6 6 6 6 6 2 R Z.C.I.r.[  . .R ) B.B.h.6.w.w.%.h ).*XN                   ",
"          O >X).).8 , 7 7 6 6 6 6 6 7 2 R Z.<.9.} O.O.a.g.h.0.6.n.{ { T r ^.).*XN                   ",
"          O >X).).j < 6 6 7 6 6 6 7 6 < R 1.@.#.:.f.d.b.7.0.5./ ~ y t t # ~.).;XN                   ",
"          O ,XqXqXb , 6 6 6 7 6 7 6 6 < T #.:.a.h.m.-.7.W u u t y T <./ * &XqXtXN                   ",
"          O >X}.{.j , 6 6 6 6 0 7 6 6 2 T >.*.-.-.{ y y y T u *.e.E l.] $ (.}.7XM                   ",
"          O -X).).8 , 6 6 6 6 6 6 6 6 2 R C.#.y t t Y E T S.%.:.f.^ k.' * ~.).5XN                   ",
"          + -X).|.j , q 0 6 7 7 6 6 7 2 R Z.C.N.$.` @.d.{ S.o.;.f./ k.` * ^.'.;XN                   ",
"            x 6 6 o q q S 1 X X X X X @ E Z.C.I.u.&.+.g.{ V.' ;.s.^ k._ # < 6 8 F                   "
};
