/* XPM */
static char *_43e73f837c24f7ddd37c9ea51728816B3AYLHmcc7byRRYl[] = {
/* columns rows colors chars-per-pixel */
"50 50 165 2 ",
"   c None",
".  c black",
"X  c #010101",
"o  c gray36",
"O  c gray49",
"+  c #FF3131",
"@  c #FF3B3B",
"#  c #FF4444",
"$  c #FF4B4B",
"%  c #FF5151",
"&  c #FF5353",
"*  c #FF5C5C",
"=  c #FF5E5E",
"-  c #FF6464",
";  c #FF6868",
":  c #FF7474",
">  c #FF7B7B",
",  c #FF7E7E",
"<  c #8684A6",
"1  c #9190AB",
"2  c #A0A0A0",
"3  c #B7B7B7",
"4  c gray75",
"5  c #FF8A8A",
"6  c #FF8C8C",
"7  c #FF8D8D",
"8  c #FF9292",
"9  c #FF9898",
"0  c #FF9D9D",
"q  c #FF9F9F",
"w  c #FFA1A1",
"e  c #FFA5A5",
"r  c #FFA8A8",
"t  c #FFB6B6",
"y  c #FFBFBF",
"u  c #A19FD6",
"i  c #A5A3D8",
"p  c #A6A4D8",
"a  c #AAA8DA",
"s  c #ABA9DA",
"d  c #ADABDB",
"f  c #AEACDB",
"g  c #B0AFDD",
"h  c #B1AFDD",
"j  c #B2B0DD",
"k  c #B3B1DE",
"l  c #B3B2DE",
"z  c #B4B1DE",
"x  c #B4B2DE",
"c  c #B5B3DE",
"v  c #B5B3DF",
"b  c #B7B4DF",
"n  c #B6B5DF",
"m  c #B7B5DF",
"M  c #B7B6E0",
"N  c #B8B6E0",
"B  c #BAB7E0",
"V  c #BAB7E1",
"C  c #BAB8E1",
"Z  c #BBB9E1",
"A  c #BCBAE1",
"S  c #BEBAE2",
"D  c #BEBCE2",
"F  c #C0BBE3",
"G  c #C2BEE4",
"H  c gray76",
"J  c gray84",
"K  c #DADADA",
"L  c #DFDFDF",
"P  c #FFC4C4",
"I  c #FFC7C7",
"U  c #FFC8C8",
"Y  c #FFCECE",
"T  c #FFD3D3",
"R  c #FFD7D7",
"E  c #FFDFDF",
"W  c #C5C0E5",
"Q  c #C5C3E5",
"!  c #C5C4E6",
"~  c #C6C5E6",
"^  c #C8C5E6",
"/  c #C8C4E7",
"(  c #C9C4E7",
")  c #C9C5E7",
"_  c #CAC5E7",
"`  c #CAC9E8",
"'  c #CDC9E9",
"]  c #D0CBEA",
"[  c #D1CCEA",
"{  c #D1CDEA",
"}  c #D1D0EA",
"|  c #D2D1EB",
" . c #D6D5ED",
".. c #D7D6ED",
"X. c #D8D2ED",
"o. c #DAD4EE",
"O. c #DBD4EF",
"+. c #D8D7EE",
"@. c #DCD5EF",
"#. c #DCDBEF",
"$. c #DFD9F0",
"%. c #E0D9F0",
"&. c #E1DCF1",
"*. c #E2DCF2",
"=. c #E2DDF2",
"-. c #E3DDF2",
";. c #E3DEF2",
":. c #E4DEF2",
">. c #EEEEEE",
",. c #FFE4E4",
"<. c #FFE5E5",
"1. c #FFE6E6",
"2. c #FFE9E9",
"3. c #FFEFEF",
"4. c #E1E0F2",
"5. c #E5E0F3",
"6. c #E7E3F4",
"7. c #E6E5F4",
"8. c #E7E7F4",
"9. c #E9E4F4",
"0. c #E9E5F5",
"q. c #EAE5F5",
"w. c #EBE7F6",
"e. c #ECE8F6",
"r. c #EDE9F7",
"t. c #EDEAF7",
"y. c #EEEBF7",
"u. c #EFECF7",
"i. c #EFECF8",
"p. c #F0ECF8",
"a. c #F0EDF8",
"s. c #F0EEF8",
"d. c #F1EEF8",
"f. c #F1EFF9",
"g. c #F2EFF9",
"h. c #FFF4F4",
"j. c #FFF7F7",
"k. c #F2F0F9",
"l. c #F3F0F9",
"z. c #F3F1FA",
"x. c #F3F3FA",
"c. c #F4F2FA",
"v. c #F5F3FA",
"b. c #F6F4FA",
"n. c #F8F6FB",
"m. c #F8F6FC",
"M. c #F8F7FC",
"N. c #F8F8FC",
"B. c #F9F8FC",
"V. c #F9F9FC",
"C. c #FAF8FC",
"Z. c #FAF9FC",
"A. c #FAF9FD",
"S. c #FAFAFD",
"D. c #FBFAFD",
"F. c #FCFBFD",
"G. c #FDFDFD",
"H. c #FCFCFE",
"J. c #FDFCFE",
"K. c #FDFDFE",
"L. c #FEFDFE",
"P. c #FEFEFE",
"I. c #FEFEFF",
"U. c #FFFEFF",
"Y. c white",
/* pixels */
"                                                                                                    ",
"                                              u u u u u u u u u j                                   ",
"                                          D Z #.#.#.#.#.#.#.#.#.} c                                 ",
"                                          h a Y.Y.Y.Y.Y.Y.Y.Y.Y.4.u                                 ",
"                                        u 7.Y.Y.Y.Y.Y.Y.Y.Y.Y.Y.Y.Y.D p                             ",
"                                        u 7.Y.Y.Y.Y.Y.Y.Y.Y.Y.Y.Y.Y...~                             ",
"                                        u 7.Y.Y.Y.Y.Y.Y.Y.Y.Y.Y.Y.Y.Y.N.u b                         ",
"                                    h ~ 7.N.Y.Y.Y.Y.Y.Y.Y.Y.Y.Y.Y.Y.Y.Y.7.} h                       ",
"                                    d ` Y.Y.Y.Y.Y.Y.Y.Y.Y.Y.Y.Y.Y.Y.Y.Y.Y...u                       ",
"                                c u Y.Y.Y.Y.Y.Y.Y.Y.Y.Y.Y.Y.Y.Y.Y.Y.Y.Y.Y...u                       ",
"                                c u Y.Y.Y.Y.Y.Y.Y.Y.Y.Y.Y.Y.Y.Y.Y.Y.Y.Y.Y...u                       ",
"                                c u Y.Y.Y.Y.Y.Y.Y.Y.Y.Y.Y.Y.Y.Y.Y.Y.Y.Y.Y...u                       ",
"                              a +.x.Y.Y.Y.> $ $ q Y.Y.Y.Y.Y.Y.& $ $ P Y.Y.N.x.Z A                   ",
"                              u #.Y.Y.Y.Y.; + + 8 Y.Y.Y.Y.Y.Y.@ + + y Y.Y.Y.Y.c b                   ",
"                              u #.Y.Y.Y.Y.; + + 8 Y.Y.Y.Y.Y.Y.@ + + y Y.Y.Y.Y.c b                   ",
"                              u #.Y.Y.Y.Y.; + + 8 Y.Y.Y.Y.Y.Y.@ + + y Y.Y.Y.Y.c b                   ",
"                              u #.Y.Y.Y.Y.; + + 8 Y.Y.Y.Y.Y.Y.@ + + y Y.Y.Y.Y.c b                   ",
"                              u #.Y.Y.Y.Y.Y.Y.Y.Y.Y.Y.Y.Y.Y.Y.Y.Y.Y.Y.Y.Y.Y.Y.c b                   ",
"                              u #.Y.2 H Y.Y.Y.Y.Y.Y.Y.Y.Y.Y.Y.Y.Y.Y.Y.Y.3 K Y.c b                   ",
"                              u #.Y.X o Y.Y.Y.Y.Y.Y.Y.Y.Y.Y.Y.Y.Y.Y.Y.Y.X O Y.c b                   ",
"                              u #.Y.4 J Y.7 : Y.t - <.Y.Y.e - h.<., <.Y.L >.Y.c b                   ",
"                              u #.Y.Y.Y.Y.> * <.q $ Y <.<.7 $ 3.R * E Y.Y.Y.Y.j b                   ",
"                              u #.Y.Y.Y.Y.Y.2.+ 8 Y.& + + r Y.# 5 Y.Y.Y.Y.p.@.h b                   ",
"                              u #.Y.Y.Y.Y.Y.h.9 U Y.r 9 9 T Y.w P Y.Y.Y.Y.p.@.h b                   ",
"                              u #.Y.Y.Y.Y.Y.Y.Y.Y.Y.Y.Y.Y.Y.Y.Y.Y.Y.Y.Y.Y.p.@.h b                   ",
"                                A d Y.Y.Y.Y.Y.Y.Y.Y.Y.Y.Y.Y.Y.Y.Y.Y.Y.Y.:.' a                       ",
"                                c u Y.Y.Y.Y.Y.Y.Y.Y.Y.Y.Y.Y.Y.Y.Y.Y.Y.Y.@.Q u                       ",
"                                c u Y.Y.Y.0.@.@.t.Y.Y.Y.Y.t.@.@.0.Y.Y.Y.@.Q u                       ",
"                                c u Y.Y.Y.c.t.t.t.t.Y.Y.t.p.t.t.c.Y.Y.Y.@.Q u                       ",
"                                c u Y.Y.Y.Y.Y.Y.i.@.Y.F.@.x.Y.Y.Y.Y.Y.Y.@.Q u                       ",
"                                c u Y.Y.Y.t.:.:.p.Y.Y.Y.Y.p.:.:.i.Y.Y.Y.@.Q u                       ",
"                                c u N.Y.Y.p.0.0.c.Y.Y.Y.Y.x.0.0.x.Y.Y.Y.@.Q u                       ",
"                                c u X.t.Y.Y.Y.Y.Y.Y.Y.Y.Y.Y.Y.Y.Y.Y.Y.Y.@.Q u                       ",
"                                c u X.t.Y.Y.Y.Y.Y.Y.Y.Y.Y.Y.Y.Y.Y.Y.c.t.@.Q u                       ",
"                                c u +.t.Y.Y.Y.Y.Y.Y.Y.Y.Y.Y.Y.Y.Y.Y.0.@.@.Q u                       ",
"                                c u +.@.@.N.Y.Y.Y.Y.Y.Y.Y.Y.Y.Y.M.@.@.+.u b                         ",
"                                c u +.;.t.c.c.c.N.Y.n.M.Y.N.c.c.u.@.] / c                           ",
"                                c u +.t.Y.0.@.@.t.Y.5.6.Y.t.@.@.@.@.b p                             ",
"                              h / [ N.b.0.n.N.@.;.0.N.N.0.;.@.@.[ c 1                               ",
"                              u / @.Y.c.@.n.Y.:.%.@.N.N.@.@.@.X.' a                                 ",
"                              u / @.@.@.@.@.;.Y.i.@.@.@.@.@.@.i j                                   ",
"                              u / @.t.0.@.@.$.t.5.@.Q A A A A <                                     ",
"                              u / @.Y.b.@.@.@.@.@.@.f u u u u                                       ",
"                        a a B X.x.Y.;.[ a a a a a a                                                 ",
"                      j c B Q @.p.N.[ G u d h h h h                                                 ",
"                    u F @.Y.N.@.@.@.u u u                                                           ",
"                    u F @.0.0.@./ B                                                                 ",
"                    u F @.@.@.@.B u                                                                 ",
"                      u u u u u                                                                     ",
"                        M M M M                                                                     "
};
