/* XPM */
static char *de8c362a742c492dba67abc4b0fb7852eCBJuw8gzm4DnBwr[] = {
/* columns rows colors chars-per-pixel */
"50 50 171 2 ",
"   c None",
".  c black",
"X  c #FF3131",
"o  c #FF3333",
"O  c #FF4949",
"+  c #FF4B4B",
"@  c #FF5B5B",
"#  c #FF6060",
"$  c #FF6464",
"%  c #FF7474",
"&  c #FF7777",
"*  c #FF7F7F",
"=  c gray51",
"-  c #939393",
";  c #9F9F9F",
":  c #8D8CA9",
">  c #B7B7B7",
",  c gray75",
"<  c #FF8C8C",
"1  c #FF8E8E",
"2  c #FF9191",
"3  c #FF9696",
"4  c #FF9898",
"5  c #FF9999",
"6  c #FF9D9D",
"7  c #FF9F9F",
"8  c #FFAEAE",
"9  c #FFB0B0",
"0  c #FFB7B7",
"q  c #FFBABA",
"w  c #A19FD6",
"e  c #A4A2D7",
"r  c #A5A3D8",
"t  c #A6A4D8",
"y  c #AAA8DA",
"u  c #ABA9DA",
"i  c #ACABDB",
"p  c #ADABDB",
"a  c #AEACDB",
"s  c #AEACDC",
"d  c #AFADDC",
"f  c #AFAEDC",
"g  c #B0AEDC",
"h  c #B0AFDD",
"j  c #B1AFDD",
"k  c #B3B1DE",
"l  c #B4B2DE",
"z  c #B5B3DE",
"x  c #B5B3DF",
"c  c #B6B4DF",
"v  c #B7B4DF",
"b  c #B7B5DF",
"n  c #B7B6E0",
"m  c #B8B6E0",
"M  c #B8B7E0",
"N  c #B9B7E0",
"B  c #BAB7E1",
"V  c #BAB8E1",
"C  c #BBBAE1",
"Z  c #BCB8E1",
"A  c #BCBBE2",
"S  c #BEBAE2",
"D  c #BFBBE3",
"F  c #BFBCE3",
"G  c #C0BDE3",
"H  c #CACACA",
"J  c gray84",
"K  c gainsboro",
"L  c #DFDFDF",
"P  c #FFC3C3",
"I  c #FFC7C7",
"U  c #FFC8C8",
"Y  c #FFDDDD",
"T  c #C1C0E4",
"R  c #C5C1E5",
"E  c #C4C3E5",
"W  c #C7C5E6",
"Q  c #C9C4E7",
"!  c #C9C7E7",
"~  c #CAC9E8",
"^  c #CDC9E9",
"/  c #CFCEEA",
"(  c #D0CBEA",
")  c #D1CCEA",
"_  c #D3CEEB",
"`  c #D1D0EB",
"'  c #D3D2EC",
"]  c #D4D0EC",
"[  c #D6D0EC",
"{  c #D8D2ED",
"}  c #DAD4EE",
"|  c #DBD4EE",
" . c #DBD5EF",
".. c #DCD5EF",
"X. c #DDD6EF",
"o. c #DCDBEF",
"O. c #DED8F0",
"+. c #DFD8F0",
"@. c #DEDDF0",
"#. c #E1DBF1",
"$. c #E2DCF2",
"%. c #E4DEF2",
"&. c #E4DFF3",
"*. c #E4E4E4",
"=. c gray92",
"-. c #EFEFEF",
";. c #FFE1E1",
":. c #FFE3E3",
">. c #FFE4E4",
",. c #FFE5E5",
"<. c #FFE6E6",
"1. c #FFEAEA",
"2. c #FFEDED",
"3. c #E3E3F3",
"4. c #E4E1F2",
"5. c #E5E0F3",
"6. c #E5E1F3",
"7. c #E6E1F3",
"8. c #E7E2F4",
"9. c #E7E7F4",
"0. c #E8E3F4",
"q. c #E8E4F5",
"w. c #E9E4F5",
"e. c #E9E5F5",
"r. c #EAE5F5",
"t. c #E8E7F5",
"y. c #EAE6F5",
"u. c #EBE7F5",
"i. c #EBE7F6",
"p. c #E9E9F5",
"a. c #EAE8F5",
"s. c #EBEBF6",
"d. c #ECE8F6",
"f. c #EDE9F7",
"g. c #EDEAF7",
"h. c #EFEBF7",
"j. c #EEEDF7",
"k. c #EFEDF8",
"l. c #F0EDF8",
"z. c #F1EEF8",
"x. c #F1EEF9",
"c. c #F1F1F1",
"v. c #F4F4F4",
"b. c #FFF2F2",
"n. c #FFF4F4",
"m. c #F3F3FA",
"M. c #F4F2FA",
"N. c #F4F3FA",
"B. c #F5F3FA",
"V. c #F4F4FA",
"C. c #F6F4FB",
"Z. c #F8F7FC",
"A. c #FFF8F8",
"S. c #F8F8FC",
"D. c #FAF8FC",
"F. c #FAF9FD",
"G. c #FAFAFD",
"H. c #FBFAFD",
"J. c #FCFBFD",
"K. c gray99",
"L. c #FCFCFD",
"P. c #FDFDFD",
"I. c #FCFCFE",
"U. c #FDFCFE",
"Y. c #FDFDFE",
"T. c #FEFDFE",
"R. c #FEFEFE",
"E. c #FFFEFE",
"W. c #FEFEFF",
"Q. c #FFFEFF",
"!. c white",
/* pixels */
"                                                                                                    ",
"                                    w w w w w w w w w b                                             ",
"                                V T o.o.o.o.o.o.o.o.o.~ x                                           ",
"                                y M !.!.!.!.!.!.!.!.!.' w                                           ",
"                            w w N.!.!.!.!.!.!.!.!.!.!.!.!.g f                                       ",
"                            n E Z.!.!.!.!.!.!.!.!.!.!.!.!.g f                                       ",
"                          w ` !.!.!.!.!.!.!.!.!.!.!.!.!.!.g f                                       ",
"                      V V 9.m.!.!.!.!.!.!.!.!.!.!.!.!.!.!.p.@.g                                     ",
"                      f f !.!.!.!.!.!.!.!.!.!.!.!.!.!.!.!.!.j.p :                                   ",
"                      g f !.!.!.!.!.!.!.!.!.!.!.!.!.!.!.!.!.!.!.Q w                                 ",
"                      g f !.!.!.!.!.!.!.!.!.!.!.!.!.!.!.!.!.!.!.Q w                                 ",
"                      g f !.!.!.!.!.!.!.!.!.!.!.!.!.!.!.!.!.!.!.Q w                                 ",
"                    y 3.V.!.!.!.# + + q !.!.!.!.!.2.+ + + ;.!.!.G.m.f M                             ",
"                    w p.!.!.!.!.+ X X 9 !.!.!.!.!.1.X X X Y !.!.!.!.t k                             ",
"                    w p.!.!.!.!.+ X X 9 !.!.!.!.!.1.X X X Y !.!.!.!.t k                             ",
"                    w p.!.!.!.!.+ X X 9 !.!.!.!.!.1.X X X Y !.!.!.!.t k                             ",
"                    w p.!.!.!.!.+ X X 9 !.!.!.!.!.1.X X X Y !.!.!.!.t k                             ",
"                    w p.!.!.!.!.!.!.!.!.!.!.!.!.!.!.!.!.!.!.!.!.!.!.t k                             ",
"                    w p.!.> L !.!.!.!.!.!.!.!.!.!.!.!.!.!.!.=.; J !.t k                             ",
"                    w p.v.. = !.!.!.!.!.!.!.!.!.!.!.!.!.!.!.H . - !.t k                             ",
"                    w p.!.L -.!.5 8 !.7 $ !.!.!.< % !.0 $ ,.c., *.!.t k                             ",
"                    w e.!.!.!.!.* 3 A.< + ,.,.,.% @ ,.7 + ;.!.!.!.!.t k                             ",
"                    w _ %.!.!.!.!.,.X P !.X X X I 1.X 2 !.!.!.!.!.!.t k                             ",
"                    w _ %.!.!.!.!.b.5 ;.!.5 5 5 ;.n.5 U !.!.!.!.!.!.t k                             ",
"                    w _ %.!.!.!.!.!.!.!.!.!.!.!.!.!.!.!.!.!.!.!.!.!.t k                             ",
"                      b x %.l.!.!.!.!.!.!.!.!.!.!.!.!.!.!.!.!.!./ p                                 ",
"                      g p ..g.!.!.!.!.!.!.!.!.!.!.!.!.!.!.!.!.!.Q w                                 ",
"                      g p ..g.!.!.G.......!.!.!.!.!.......!.!.!.Q w                                 ",
"                      g p ..g.!.!.!.g.g.g.g.N.!.N.l.g.g.g.!.!.!.Q w                                 ",
"                      g p ..g.!.!.!.!.!.!...g.!.e.$.!.!.!.!.!.!.Q w                                 ",
"                      g p ..g.!.!.G.%.%.%.!.!.!.!.!.%.%.%.!.!.!.Q w                                 ",
"                      g p ..g.!.!.J.e.e.e.!.!.!.!.!.e.e.e.!.!.G.W w                                 ",
"                      g p ..g.!.!.!.!.!.!.!.!.!.!.!.!.!.!.!.J...D w                                 ",
"                      g p ..%.g.!.!.!.!.!.!.!.!.!.!.!.!.!.!.J...D w                                 ",
"                      g p ......!.!.!.!.!.!.!.!.!.!.!.!.!.!.J...D w                                 ",
"                          w D ....e.!.!.!.!.!.!.!.!.!.!.!.6.....D w                                 ",
"                          x G Q } %.N.N.N.!.!.N.!.!.N.N.N.l.e...D w                                 ",
"                            w w { ........!.V...G.!.......!.J...D w                                 ",
"                                M G ......e.l.G.l.0...e.G.g.g.G.6._ x D                             ",
"                                g M { } ....e.!.e...%.l.!.%.6.!.g...t k                             ",
"                                    w Q ..........$.!.k.............t k                             ",
"                                      F D D D D [ +.g.6.....#.g.%...t k                             ",
"                                      x w w w w ( ..........8.!.g...t k                             ",
"                                                M y y y y y M %.N.!.} ^ y y a                       ",
"                                                V g g g g e p _ p.G.+.[ M x b                       ",
"                                                          p w w E ....e.!.e.} w M                   ",
"                                                                F M } $.g.$.} w b                   ",
"                                                                b w } ......} w M                   ",
"                                                                    r w w w r                       ",
"                                                                    V n n n V                       "
};
