/* XPM */
static char *xpm_[] = {
/* columns rows colors chars-per-pixel */
"50 50 31 1 ",
"  c #6F952B",
". c #6F952C",
"X c #70962B",
"o c #70952C",
"O c #71982C",
"+ c #739B2D",
"@ c #749B2E",
"# c #779F2F",
"$ c #789F2F",
"% c #77A02F",
"& c #78A02F",
"* c #79A12F",
"= c #77A030",
"- c #78A030",
"; c #79A130",
": c #7BA330",
"> c #7AA430",
", c #7DA731",
"< c #7CA732",
"1 c #7EA833",
"2 c #7FA933",
"3 c #7FAA32",
"4 c #7FAA34",
"5 c #81AA33",
"6 c #81AC33",
"7 c #80A934",
"8 c #81AA34",
"9 c #82AD35",
"0 c #84AE34",
"q c #84AF36",
"w c #85B035",
/* pixels */
";#####+##$>82,;;>;==;=%%;=#++;#####&;;,2,;;2>;;###",
"=;#######$;>22,,8>-;;;=;;%#%#%###+X$;;%>8>&9,&####",
"###@#&%%@$##&,;>;#@#=#;>2&;;;###&#@&>=%%>>;2&##&##",
"#++##>;=####$%&;&XX#=%;29,;;=$=$####;=##;;&&##&&%#",
"#=;%>,,=####@+##&  ###>>5,##;8=$;;=#%==#;=##++%,8>",
"#>222,;;#####@#%@+#%##;>,&##,,&;,2,;##=#+%+#@+$,92",
";9w92>;;##;&;;&&##;;&;;;;###&&;,5q9;####o+#####&9w",
">6w2&;==#&,5q92;#;>8,;>;;=@+#%#&,96>28;#.++#@o#&,6",
">59>;%%#+#-5w95;;;28,###;;# o###;22>29;#++#&++%;;2",
";>>;%+++###,6592,95,#X##=#@o+###;>,2>;%%#%%=##&&;;",
"####;#oX####;582;99&XX####@@++##;;;,;=%%##;>######",
"#+X#&#o +###=;5,#89;o+-+##%%##+#&&&;;;=&#=;;;&#&##",
"######&$#&=##+#+#;;;#+++ ####%%@.+@====,2&&>85;;%#",
"######;;,;==##+###;;%##++#$=#;#+ +#;#=;>225&;,;;%#",
"##+##$25q2&;%=#=;;;;##+###;;>&#o +%;==>;>86%##===;",
"+ X##$,,995>,2;;=%%=######>22&$###%=##;;;,,&###=#=",
"+  #%;;,666822>%%###%%%=;;>98,;;;;#;##===&>%#+#+=;",
"+  #=;;$25998>;%#%=;;&##;;;>29>;;;==#+%%#%%#+o+#=;",
"#oo#=;=$#*222=%#%;>,>==;>;;;2q>>,;%####+o###%+%&=;",
"&#+#%=+#&&=;;=##=;;22;;,9>#;,9;,6;###=#+ +#%&&&&;;",
";###;;;#*&+o+#%;;>;>88&;5;#%;>#&>;=;22&%%%%%;>66>%",
"=##>>;==2&%o+#=;;%%;,2%;,;##;=##&%&;,222&%=;,892;%",
";;;98;;&9,% +#;>;%#%;;=>;;%##%#####&&>29w2&>2w96;;",
"=;;,28>29,%#=;>>;%%%=%;=#=##=####++%>;22965>265>;%",
"##&;28>,q,;;;;22*&;&#####@#=&###@Xo&&;;299q>,2;%%%",
"##@=&&;;&&&#=;;2w2;&$###@#=;#+%&#++###;%&59>;#;%+#",
"%#+=;#==@###=;>,w<&2&&#@@@$&%+%;%@+%##=;&,,;&#%++#",
";##=;>&#X+@#;;;,9>,52>##X@##&;;>%%%;%;;;;;;;;%%=##",
";=%;>2>;####=;%;>;%2>;#+ +&&22&>;=;;$$##;;;%%%&;##",
";,>,28>;###+%=;#;=##=;#++#;%292>;;;>>###%%##%&>>#+",
",9q62;;;###++&##%%##%=&%%;%#>99,;;>9,;##++ +&522%&",
"6992>;##+##o+#++%%%#;;;;#=##;,w2=22,;;###  #&&&25,",
"wq9;;=##+#=X@#Xo##%;;>;;#&%##;5,#88######  #==;,9,",
"q,2;;;%%&&-+#$#%%##=22;;%=&%##&;%>,&#####+####;,62",
"2&$&;=;&;>,;=;#$;%%;292,;;;2;=#%=%#;##@+#%=#@+=>2&",
"&&&&##%#>88>>&##=;;;26q5>;,92;=%;##==#++@#;%@+;;;#",
"###%&%##&29>,,>;##=;&,92>22;;;#%;=;;>=%#&;;;=###;=",
"####%##@&22;28,=###%&262&22#=;#%;>;>;==;>;>>-#@#&$",
"#+ #@++#;>####=;%+++;;>;;>;;;%%=;29$%==;>99&>&##+#",
"#++#+o@$;;####==&++%%==>;%#+##=>>,522>;>5qq>;&%@+#",
"&#%#@+%;;%==;##%;;;;%%=;;@+++#;=;=;8qq>,99,&&;%+o#",
"&##&#%=;;=;;%#;>22;;=%>;==+##%=###=>88,,8;$#&&==##",
";&&&&;;>>;>>;$&,w2*&;>>>;=%;%&%%#+@;,8>,2####;;-=#",
";;;5,>;>q2262;$;9w9,>>98;;;>;;=%#++;;;;%##@$==##;-",
">,5,;;>,q682>;##2962,8,&&&>5,&%%##+%;;=#@++#;>,,;=",
"299;#;;;599;;=##&52&,,##@$>522*2;;>>;=%=#o #;>82,;",
"qq9&;=##>55#@#+#;;;=;;%#o#>>2692;;>9,;$&#X @=;;29,",
"w95;;##=>>>##@+@&;;==;##+#;;;5q2>2,2,&#@#++%=&%292",
"6&&&&;;;%%##=#X@&&&>;%#####=;>92>28>;=+o@##=##=>8,",
"5&&&&%;=%%######&52,&#+###+=;=>;=>;===%%###%&##&;;"
};
