/* XPM */
static char *_29a1358ad0643e1b1ac943c70838d8e8UIMZIrv3DIYaw8S[] = {
/* columns rows colors chars-per-pixel */
"50 50 146 2 ",
"   c None",
".  c #444444",
"X  c gray27",
"o  c #464645",
"O  c #505050",
"+  c #7D6453",
"@  c #7D6454",
"#  c #7E6554",
"$  c #7D6759",
"%  c #952C3D",
"&  c #962C3C",
"*  c #962D3D",
"=  c #A2653A",
"-  c #A3643B",
";  c #A3653B",
":  c #A3653C",
">  c #A4663C",
",  c #A5663D",
"<  c #A6673D",
"1  c #A8693F",
"2  c #C55D3F",
"3  c #C95F3F",
"4  c #CB623F",
"5  c #A13041",
"6  c #A23041",
"7  c #A43041",
"8  c #A53143",
"9  c #A73243",
"0  c #A83244",
"q  c #AD3446",
"w  c #AE3446",
"e  c #B03547",
"r  c #B33548",
"t  c #B9364A",
"y  c #BA374A",
"u  c #BC374B",
"i  c #BB374D",
"p  c #BA384B",
"a  c #B3494E",
"s  c #916F59",
"d  c #B17042",
"f  c #B47343",
"g  c #B97744",
"h  c #BB7845",
"j  c #BC7A45",
"k  c #BD7946",
"l  c #BD7A46",
"z  c #BE7B46",
"x  c #BE7B47",
"c  c #BF7B47",
"v  c #BF7C47",
"b  c #B8774C",
"n  c #BF7D51",
"m  c #A17A60",
"M  c #A37F66",
"N  c #A47F66",
"B  c #C15042",
"V  c #CC6240",
"C  c #C27E49",
"Z  c #C07D4B",
"A  c #C37F4A",
"S  c #C17E4C",
"D  c #D1635F",
"F  c #C17F53",
"G  c #C47068",
"H  c #D07E6E",
"J  c #D37271",
"K  c #E0AF25",
"L  c #E0AF26",
"P  c #E9B627",
"I  c #F2BD29",
"U  c #F2BC2B",
"Y  c #F2BC2D",
"T  c #F4BB3B",
"R  c #F4BB3C",
"E  c #AE8061",
"W  c #BE8F70",
"Q  c #C5814B",
"!  c #C6824C",
"~  c #C28055",
"^  c #CE8952",
"/  c #CF8A52",
"(  c #C88559",
")  c #CD8A5D",
"_  c #CF8C5E",
"`  c #D58F56",
"'  c #D59056",
"]  c #D69056",
"[  c #D69057",
"{  c #D79157",
"}  c #D89258",
"|  c #D89259",
" . c #D99359",
".. c #ECB14F",
"X. c #ECB150",
"o. c #EEB253",
"O. c #EFB258",
"+. c #F7B75E",
"@. c #C28E6B",
"#. c #D08C60",
"$. c #D69164",
"%. c #D99466",
"&. c #DA9567",
"*. c #DB9667",
"=. c #DD9868",
"-. c #DE9968",
";. c #D28D73",
":. c #DE9076",
">. c #DF9176",
",. c #DA9D75",
"<. c #D69D78",
"1. c #E29C6B",
"2. c #E59F6E",
"3. c #E59F6F",
"4. c #E59E70",
"5. c #E59F70",
"6. c #E49779",
"7. c #E89C7B",
"8. c #E7A660",
"9. c #E4A06D",
"0. c #ECA868",
"q. c #F8B764",
"w. c #ECA576",
"e. c #EDA777",
"r. c #F2A77F",
"t. c #F1AA7B",
"y. c #F4AD7E",
"u. c #F5AE7F",
"i. c #FBB57D",
"p. c gray",
"a. c #F2A880",
"s. c #F7AF80",
"d. c #FCB485",
"f. c #FDB485",
"g. c #FCB585",
"h. c #FDB585",
"j. c #FCB486",
"k. c #FDB486",
"l. c #FCB586",
"z. c #FDB586",
"x. c #FBBB91",
"c. c #FBBC91",
"v. c #FACAAB",
"b. c #C3C3C3",
"n. c #E6E6E6",
"m. c gray97",
/* pixels */
"                                  j j j j j j Q  . . . .        j j                                 ",
"                                  g h j j j j !  . .{ {         j j                                 ",
"                              ; : , , Z { { { {  .^ v j j j  .{ j j                                 ",
"                              ; : : : S  . . . . .^ j j j j  .{ j j                                 ",
"                              ; : : : , 1 f v v v j j Z { ` v v                                     ",
"                              ; : : : : : d j j j j j Z  . .j j                                     ",
"                              ; : : : F %.%.=.=.=.=.=.=.1.1.                                        ",
"                              ; : : : ( 5.5.5.5.5.5.5.5.5.5.                                        ",
"                              ; : n ) %.5.E # m y.y.y.,.# +                                         ",
"                              ; : _ 5.5.5.s o $ z.z.z.<.o o                                         ",
"                              ; : _ 5.5.5.s o $ z.z.z.<.o o                                         ",
"                              ; : _ 5.5.5.s o $ z.z.z.<.o o                                         ",
"                                  b ~ $.5.@.M W z.a.:.;.N M                                         ",
"                                  ; : ( 5.t.z.z.z.7.G H z.z.                                        ",
"                                    ; #.5.t.z.z.z.r.:.6.z.z.                                        ",
"                                      5.5.t.z.z.z.z.z.z.z.z.                                        ",
"                                        3.w.y.y.y.s.z.z.z.z.                                        ",
"                                          9.5.5.5.3.                                                ",
"                                          8.w.w.w.0.                                                ",
"                                  z.z.X.K O.z.z.z.q.I I                                             ",
"                                  z.z.X.K O.z.z.z.q.I Y                                             ",
"                              z.z.z.z.X.K O.z.z.z.q.I R z.z.                                        ",
"                              z.z.z.z...K X.i.i.i.+.I R z.z.                                        ",
"                          z.z.        K K P I I I I I R z.z.        z.z.                            ",
"                          z.z.        K K P I I I I I T z.z.        z.z.                            ",
"                          z.z.        K K P I I I I I I     z.z.z.z.                                ",
"                          z.z.        K K P I I I I I I     z.z.z.z.                                ",
"                              z.z.    K K P I I I I I I                                             ",
"                              z.z.    K K P I I I I I I                                             ",
"                                      K K P I I I I I I                                             ",
"                                      K K P I I I I I I                                             ",
"                                      K K P I I I I I I                                             ",
"                                      K K P I I I I I I                                             ",
"                                    y B 2 3 V V V V V 4                                             ",
"                                  y p p p p p p p p p p                                             ",
"                                  y p p p p p p p p p p i u                                         ",
"                                  y p p p p p p p p p p p y                                         ",
"                                  y p p p e 0 0 0 q p p p y                                         ",
"                                  y p p p 8 * * * 5 p p p y                                         ",
"                                  y p r q 5 * * * 8 p p p y                                         ",
"                                  y p 8 *           p p p y                                         ",
"                                  J D a *           D D D D                                         ",
"                          o o b.m.v.z.              z.z.z.z.                                        ",
"                          o o p.m.v.z.              z.z.z.z.                                        ",
"                          o o                           z.z.                                        ",
"                          o o                           x.c.                                        ",
"                                                        m.m.                                        ",
"                                                        n.n.                                        ",
"                                                        O O o o                                     ",
"                                                        o o o o                                     "
};
