/* XPM */
static char *_377a86fe271444a8b0ddc4e636392d2jK0WgILTAEmuvQxJ[] = {
/* columns rows colors chars-per-pixel */
"50 50 151 2 ",
"   c None",
".  c #444444",
"X  c gray27",
"o  c gray30",
"O  c gray31",
"+  c #505050",
"@  c #515151",
"#  c #745F51",
"$  c #7D6453",
"%  c #7D6454",
"&  c #952C3D",
"*  c #962C3C",
"=  c #962D3D",
"-  c #992E3E",
";  c #9E2F3F",
":  c #A2653A",
">  c #A3653C",
",  c #A5663C",
"<  c #A5663D",
"1  c #A7693E",
"2  c #A8693F",
"3  c #C55C3F",
"4  c #C55D3F",
"5  c #CA603F",
"6  c #CC613E",
"7  c #A03041",
"8  c #A83244",
"9  c #AA3344",
"0  c #AD3345",
"q  c #AD3446",
"w  c #AE3446",
"e  c #A03843",
"r  c #B23548",
"t  c #B9364A",
"y  c #BA374A",
"u  c #BC374D",
"i  c #B93948",
"p  c #B9384A",
"a  c #BA384A",
"s  c #BA384B",
"d  c #9B755C",
"f  c #B67443",
"g  c #B87645",
"h  c #BA7845",
"j  c #BB7845",
"k  c #BD7A45",
"l  c #BD7946",
"z  c #BC7A46",
"x  c #BD7A46",
"c  c #BE7A46",
"v  c #BE7B46",
"b  c #BE7B47",
"n  c #BF7B47",
"m  c #BF7C47",
"M  c #BD7C51",
"N  c #A37F66",
"B  c #CC6240",
"V  c #D1635F",
"C  c #D16966",
"Z  c #C47068",
"A  c #E0AF25",
"S  c #E0AF26",
"D  c #E2AF2E",
"F  c #E2AF2F",
"G  c #ECB928",
"H  c #F2BB2B",
"J  c #F2BD29",
"K  c #F4BA3A",
"L  c #F4BA3C",
"P  c #A78168",
"I  c #AE856A",
"U  c #B78869",
"Y  c #BC8B6A",
"T  c #C6824C",
"R  c #C8844D",
"E  c #C8844E",
"W  c #CA854F",
"Q  c #CA864F",
"!  c #C28055",
"~  c #C68457",
"^  c #CC8851",
"/  c #CD8851",
"(  c #CE8951",
")  c #CD8A5D",
"_  c #D08A52",
"`  c #D18B53",
"'  c #D18C53",
"]  c #D18C54",
"[  c #D38E55",
"{  c #D48E56",
"}  c #D59056",
"|  c #D69057",
" . c #D79157",
".. c #D79258",
"X. c #D99359",
"o. c #DA955B",
"O. c #F5B94C",
"+. c #ECAA5F",
"@. c #F6B950",
"#. c #F7B953",
"$. c #F7B954",
"%. c #C18D6B",
"&. c #C3886F",
"*. c #D38F62",
"=. c #D99466",
"-. c #DA9667",
";. c #DC9667",
":. c #DD9868",
">. c #DE9968",
",. c #DF9A69",
"<. c #DE996B",
"1. c #DC8D74",
"2. c #DE9076",
"3. c #DF9176",
"4. c #D69D78",
"5. c #E19B6D",
"6. c #E29C6C",
"7. c #E29C6E",
"8. c #E49E6F",
"9. c #E59F6F",
"0. c #E59E70",
"q. c #E49F70",
"w. c #E59F70",
"e. c #EB9F7C",
"r. c #E9A56B",
"t. c #F3B363",
"y. c #F4B369",
"u. c #ECA576",
"i. c #ECA07D",
"p. c #ECA17D",
"a. c #F0AA7A",
"s. c #F4AD7E",
"d. c #F5AE7F",
"f. c #F6AE7F",
"g. c #FBB57D",
"h. c #F8B181",
"j. c #FDB485",
"k. c #FCB585",
"l. c #FDB585",
"z. c #FDB486",
"x. c #FDB586",
"c. c #FBBB91",
"v. c #FCBC91",
"b. c #FCBE97",
"n. c #FCBF97",
"m. c gainsboro",
"M. c #E6E6E6",
"N. c #F1F1F1",
"B. c gray95",
"V. c #F7F6F6",
"C. c gray97",
/* pixels */
"                              k k         o.X.X.X.( k k k k k k                                     ",
"                              k k         { } ..X.( k k k k h h                                     ",
"                              k k ` X.T k k m R X...} } } [ < < > >                                 ",
"                              k k ' X.T k k k R X.X.X.X.X.[ > > > >                                 ",
"                                  k m ( } R k k m m m g 2 1 > > > >                                 ",
"                                  k k ` X.R k k k k k f > > > > > >                                 ",
"                                      >.6.>.>.>.>.>.>.;.=.*.> > > >                                 ",
"                                      q.q.q.q.q.q.q.q.q.q.>.> > > >                                 ",
"                                      $ % Y s.s.s.%.% d q.6.) ~ > >                                 ",
"                                      X X P x.x.x.I X # q.q.q.=.> >                                 ",
"                                      X X P x.x.x.I X # q.q.q.=.> >                                 ",
"                                      X X P x.x.x.I X # q.q.q.=.> >                                 ",
"                                      N N &.2.p.x.4.N U q.5.! M                                     ",
"                                      x.x.2.Z 1.x.x.x.s.q.>.> >                                     ",
"                                      x.x.p.2.e.x.x.x.s.q.5.:                                       ",
"                                      x.x.x.x.x.x.x.x.s.q.q.                                        ",
"                                        x.x.x.h.s.s.s.a.9.9.                                        ",
"                                                q.q.q.9.                                            ",
"                                              +.u.u.u.r.                                            ",
"                                          H J @.x.x.x.y.S F x.x.                                    ",
"                                          L J @.x.x.x.y.S F x.x.                                    ",
"                                      x.x.$.J @.x.x.x.y.S F x.x.x.x.                                ",
"                                      x.x.$.J O.g.g.g.t.S F x.x.x.x.                                ",
"                          x.x.        x.x.$.J J J J J G S S         x.x.                            ",
"                          x.x.        x.x.@.J J J J J G S S         x.x.                            ",
"                              x.x.x.x.    K J J J J J G S S         x.x.                            ",
"                              x.x.x.x.    H J J J J J G S S         x.x.                            ",
"                                          H J J J J J G S S     x.x.                                ",
"                                          H J J J J J G S S     x.x.                                ",
"                                          H J J J J J G S S                                         ",
"                                          H J J J J J G S S                                         ",
"                                          H J J J J J G S S                                         ",
"                                          H J J J J J G S S                                         ",
"                                          6 B B B B B 5 3 3 y y                                     ",
"                                          a a a a a a a a a a a                                     ",
"                                        u a a a a a a a a a a a                                     ",
"                                      y a a a a a a a a a a a a                                     ",
"                                      y a a a r 9 9 9 q a a a a                                     ",
"                                      y a a a 9 = = = 7 a a a a                                     ",
"                                      y a a a 0 = = = ; q q a a                                     ",
"                                      y a a a a         = - a a                                     ",
"                                      V V V V V         = e V C                                     ",
"                                      x.x.x.x.x.            x.b.C.B.+ X                             ",
"                                      x.x.x.x.              x.b.C.B.o X                             ",
"                                      x.x.                          X X                             ",
"                                      v.c.                          X X                             ",
"                                      C.C.                                                          ",
"                                      m.M.                                                          ",
"                                  X X o +                                                           ",
"                                  X X X X                                                           "
};
