/* XPM */
static char *xpm_[] = {
/* columns rows colors chars-per-pixel */
"52 50 31 1 ",
"  c #686868",
". c #7B7B7B",
"X c gray50",
"o c #818181",
"O c #8E8E8E",
"+ c #989898",
"@ c #9A9A9A",
"# c gray61",
"$ c gray64",
"% c #A7A7A7",
"& c gray67",
"* c gray70",
"= c #B4B4B4",
"- c #B9B9B9",
"; c gray75",
": c #C1C1C1",
"> c #C6C6C6",
", c #CBCBCB",
"< c gray80",
"1 c gray82",
"2 c gray84",
"3 c #DADADA",
"4 c gainsboro",
"5 c #E4E4E4",
"6 c gray90",
"7 c #EAEAEA",
"8 c #ECECEC",
"9 c gray95",
"0 c #F6F6F6",
"q c #F9F9F9",
"w c white",
/* pixels */
"ww3,452,24544<,&@3w5,255<,44543,*@*55,<551<45543<<@@",
"ww1:23<:<4433:;$O3w4:<33:;3343<:&O&34;:33<:23333;>OO",
"77422<1244411-;&@<7522<222442<,-&@=9912<<324421<-;@@",
"33431:<3444::&&#O>3333:>3333<;;&#O=ww33::3443<::&=OO",
"873<1<233<1===*$O>31<1<233<<:=;=$O&88<<<<432<:=;=-OO",
"ww1:23333:>&&:;$O>3,:<3433::-&;:&O&34::43431:=&-:>OO",
"003<44322:>--::&@,42<24533:::->:&#=45,<4443<>;-::>@@",
"334443<::&=::&&#O>333444:;&&::-&#O&343334<;-&=;:&*OO",
"333343<>>*->>**%@>333333:>**>:;*%@&333333,:;*;:>*=@@",
"OO@O@OOO@O@OOOOX OOOO@O@OOOO@O@O. oO@OOOO@O@OOO@O@OO",
"OO@O@OOO@O@OOOOo OOOO@O@OOOO@O@O. oO@OOOO@O@OOO@O@OO",
"344343=O*wwww33qw7334433OOwwww738w0344333%O3www035ww",
"334344=O*wwww33qw7334443OOwwww738w0344333%O3www034ww",
"54542<*@*5511442134443<<@@ww41442134544,,&@<53124511",
"33431;%O&34::33,;24333;>OOww1;23<:,3434:;$O>3<:,34:;",
"443<,-&@=9922<1325421<-;@@773221123541<--&@29523<222",
"33,:-&#O*ww33::3343<::&*OO33431;<3434::&&#O3w833:,33",
"<<:=;=$O&87<<<<432<:=;=;OO773<1<234<1====$O184<1<133",
"::-&:;%O&43::33431:=&-::OOww1:23333:>&&;;$O>3<:,3433",
"::;->:&@=45<<4443<:;-::>@@003<44322:,--::&@,42,24523",
"&&::-&#O&343333,;-&=::&*OO334343<::&=::&&#O>333334:;",
"**>>;*%@*343333,>;*-:>==@@334343<>>=-:>=*%@>333333:>",
"OO@O@O. oO@OOOO@O@OOO@O@  OO@O@OOO@O@OOOOX OOOO@O@OO",
"OO@O@O. oO@OOOO@O@OOO@O@  OO@O@OOO@O@OOOOX OOOO@O@OO",
"ww539w735343333%O3w835wwww334343*O*ww3333544333533OO",
"ww539w834343333%O3w835wwww345343*O*ww3333434333433OO",
"ww3,452<24544,,&@<52<2551134542<=@=55,,441,34444,,@@",
"ww1;23<:<3444::$O>3<:<34;:3343<:&O&33;;33<:23333:>OO",
"77322<22445<<;-&@195221112542<,-&@*442211224421<-;@@",
"3343<:<3433::&&#O3w833;,3333<:;&@O&3433::3343<::&*OO",
"883<1<133<1====$O<84<1<233<<:=;*$O&341<<<432<:=;=;OO",
"ww1:23333:>&&:;%O>3<:<3433;:-&;;%O&34::33431:=&-::OO",
"003,44432:>--::&@,42,24522:::->:&#=45,,4443<:;-::>@@",
"334343<::&=::&&#O>333434::&&:;-&#O&343333<:-&=::&=OO",
"334333<>>=->>*=%@>333333:>==>>;=%@*343333<>;*;>:*=@@",
"OO@O@OOO@O@OOOOX OOOO@O@OOOO@O@O. oO@OOOO@O@OOO@O@OO",
"OO#O@OOO@O@OOOOX OOOO@O@OOOO@O@O. oO@OOOO@O@OOO@O@OO",
"334343=O*ww33ww544333433OOwwww737w0343333%O3w735wq33",
"344353*O*ww33ww534333433OOwwww737w0343343%O3w835ww33",
"44542,*@-wq,<551,34544,,@@5521442133544<,&@4w5<255,,",
"3344<:%O*ww;:33,;23333:>OO33,;24<:<4433:;$O3w4:,34:;",
"443<,-&@=7722<<32542<<-;@@99422<12445<1--&@<75231122",
"43<:-&#O&4443::3344<::&*OOww531:<3444::&&#O>3332:,33",
"<<:=;=$O&88<<<<332<:=;=;OO873<1<233<1====$O184<1<133",
"::=&;:%O*wq::4343<:=&-::OO33,:23332:>&&;;$O3w4:<3433",
":>:->:&@-00<<4543<:;-::>@@442<34332:,--::&@205,24532",
"&&>;-&@O&343333,;-&=::&*OO434333<::&=:;&&#O>333433;;",
"**>>;*%@*333333,>;*->>==@@3333331:>*-:>**%@>333433>>",
"OO@O@OOO@O@OOOO@O@OOO@O@  OO@O@OOO@O@OOOOX OOOO@O@OO",
"OO@O@OOO@O@OOOO@O@OOO@O+  OO@O@OOO@O@OOOOX OOOO@O@OO"
};
